<svg width="254" height="177" viewBox="0 0 254 177" fill="none" xmlns="http://www.w3.org/2000/svg">
<path d="M239.5 80.2H14.61C7.64569 80.2 2 85.8456 2 92.81V129.69C2 136.654 7.64569 142.3 14.61 142.3H239.5C246.464 142.3 252.11 136.654 252.11 129.69V92.81C252.11 85.8456 246.464 80.2 239.5 80.2Z" stroke="white" stroke-width="3.15" stroke-linecap="round" stroke-linejoin="round" stroke-dasharray="8.41 21.02"/>
<path d="M65.34 55.58C75.3308 55.58 83.43 47.4809 83.43 37.49C83.43 27.4992 75.3308 19.4 65.34 19.4C55.3492 19.4 47.25 27.4992 47.25 37.49C47.25 47.4809 55.3492 55.58 65.34 55.58Z" fill="black" stroke="white" stroke-width="3" stroke-linecap="round" stroke-linejoin="round"/>
<path d="M54.77 63.8201H76.77C80.9738 63.828 85.0027 65.5035 87.9724 68.4789C90.9421 71.4542 92.61 75.4863 92.61 79.6901V87.7801C92.61 89.4536 91.9452 91.0586 90.7619 92.2419C89.5785 93.4253 87.9735 94.0901 86.3 94.0901H45.21C43.5365 94.0901 41.9315 93.4253 40.7482 92.2419C39.5648 91.0586 38.9 89.4536 38.9 87.7801V79.6901C38.9 75.4811 40.572 71.4445 43.5482 68.4683C46.5244 65.4921 50.561 63.8201 54.77 63.8201Z" fill="black" stroke="white" stroke-width="3" stroke-linecap="round" stroke-linejoin="round"/>
<path d="M187.64 55.58C197.631 55.58 205.73 47.4809 205.73 37.49C205.73 27.4992 197.631 19.4 187.64 19.4C177.649 19.4 169.55 27.4992 169.55 37.49C169.55 47.4809 177.649 55.58 187.64 55.58Z" fill="black" stroke="white" stroke-width="3" stroke-linecap="round" stroke-linejoin="round"/>
<path d="M177.07 63.8201H199.07C203.279 63.8201 207.316 65.4921 210.292 68.4683C213.268 71.4445 214.94 75.4811 214.94 79.6901V87.7801C214.94 89.4536 214.275 91.0586 213.092 92.2419C211.908 93.4253 210.303 94.0901 208.63 94.0901H167.51C165.836 94.0901 164.231 93.4253 163.048 92.2419C161.865 91.0586 161.2 89.4536 161.2 87.7801V79.6901C161.2 75.4811 162.872 71.4445 165.848 68.4683C168.824 65.4921 172.861 63.8201 177.07 63.8201Z" fill="black" stroke="white" stroke-width="3" stroke-linecap="round" stroke-linejoin="round"/>
<path d="M157.71 54.67H95.59C86.5491 54.67 79.22 61.9991 79.22 71.04V93.01C79.22 102.051 86.5491 109.38 95.59 109.38H157.71C166.751 109.38 174.08 102.051 174.08 93.01V71.04C174.08 61.9991 166.751 54.67 157.71 54.67Z" fill="#010101"/>
<path d="M126.07 46.71C138.552 46.71 148.67 36.5916 148.67 24.11C148.67 11.6284 138.552 1.51001 126.07 1.51001C113.588 1.51001 103.47 11.6284 103.47 24.11C103.47 36.5916 113.588 46.71 126.07 46.71Z" fill="black" stroke="white" stroke-width="3" stroke-linecap="round" stroke-linejoin="round"/>
<path d="M112.87 56.5H140.31C142.914 56.5 145.493 57.0129 147.899 58.0095C150.305 59.006 152.491 60.4667 154.332 62.3081C156.173 64.1495 157.634 66.3355 158.631 68.7414C159.627 71.1473 160.14 73.7259 160.14 76.33V86.44C160.14 88.5299 159.31 90.5342 157.832 92.012C156.354 93.4898 154.35 94.32 152.26 94.32H100.92C98.8301 94.32 96.8258 93.4898 95.348 92.012C93.8703 90.5342 93.04 88.5299 93.04 86.44V76.33C93.04 71.0708 95.1293 66.0269 98.8481 62.3081C102.567 58.5892 107.611 56.5 112.87 56.5Z" fill="black" stroke="white" stroke-width="3" stroke-linecap="round" stroke-linejoin="round"/>
<path d="M127.08 175.22C145.261 175.22 160 160.481 160 142.3C160 124.119 145.261 109.38 127.08 109.38C108.899 109.38 94.16 124.119 94.16 142.3C94.16 160.481 108.899 175.22 127.08 175.22Z" fill="#010101" stroke="#1DE9B6" stroke-width="3" stroke-linecap="round" stroke-linejoin="round"/>
<path d="M125.93 149.62C126.047 149.419 126.215 149.252 126.417 149.135C126.618 149.019 126.847 148.958 127.08 148.958C127.313 148.958 127.542 149.019 127.743 149.135C127.945 149.252 128.113 149.419 128.23 149.62L131.11 154.62L133.99 159.62C134.105 159.823 134.165 160.053 134.164 160.287C134.163 160.521 134.1 160.75 133.983 160.952C133.866 161.154 133.698 161.322 133.495 161.44C133.293 161.557 133.064 161.619 132.83 161.62H121.32C121.086 161.62 120.856 161.559 120.653 161.441C120.451 161.324 120.283 161.156 120.166 160.953C120.049 160.75 119.988 160.52 119.989 160.286C119.99 160.052 120.052 159.822 120.17 159.62L123.05 154.62L125.93 149.62Z" fill="black" stroke="white" stroke-width="1.83" stroke-linecap="round" stroke-linejoin="round"/>
<path d="M109.15 144.83H145.01" stroke="white" stroke-width="1.83" stroke-linecap="round" stroke-linejoin="round"/>
<path d="M111.15 140.62C114.11 140.62 116.51 138.22 116.51 135.26C116.51 132.3 114.11 129.9 111.15 129.9C108.19 129.9 105.79 132.3 105.79 135.26C105.79 138.22 108.19 140.62 111.15 140.62Z" fill="#010101" stroke="#1DE9B6" stroke-width="2" stroke-linecap="round" stroke-linejoin="round"/>
<path d="M143.01 140.62C145.97 140.62 148.37 138.22 148.37 135.26C148.37 132.3 145.97 129.9 143.01 129.9C140.05 129.9 137.65 132.3 137.65 135.26C137.65 138.22 140.05 140.62 143.01 140.62Z" fill="#010101" stroke="#1DE9B6" stroke-width="2" stroke-linecap="round" stroke-linejoin="round"/>
</svg>
