<svg width="327" height="118" viewBox="0 0 327 118" fill="none" xmlns="http://www.w3.org/2000/svg">
<path d="M27 115.84C40.8071 115.84 52 104.647 52 90.8401C52 77.033 40.8071 65.8401 27 65.8401C13.1929 65.8401 2 77.033 2 90.8401C2 104.647 13.1929 115.84 27 115.84Z" fill="#010101" stroke="#1DE9B6" stroke-width="3" stroke-linecap="round" stroke-linejoin="round"/>
<path d="M26.87 80.7701H29.54V100.36H26V85.0001C25.47 85.2401 24.95 85.4251 24.44 85.5551C23.93 85.6851 23.42 85.7501 22.91 85.7501V82.3601C23.59 82.2901 24.25 82.1351 24.89 81.8951C25.53 81.6451 26.19 81.2701 26.87 80.7701Z" fill="#1DE9B6"/>
<path d="M163.43 115.84C177.237 115.84 188.43 104.647 188.43 90.8401C188.43 77.033 177.237 65.8401 163.43 65.8401C149.623 65.8401 138.43 77.033 138.43 90.8401C138.43 104.647 149.623 115.84 163.43 115.84Z" fill="#010101" stroke="#1DE9B6" stroke-width="3" stroke-linecap="round" stroke-linejoin="round"/>
<path d="M156.16 100.36V97.0301C156.16 95.9401 156.325 95.0151 156.655 94.2551C156.985 93.4951 157.475 92.8551 158.125 92.3351C158.785 91.8051 159.61 91.3501 160.6 90.9701L164.59 89.4401C165.46 89.0901 166.1 88.6601 166.51 88.1501C166.93 87.6401 167.14 87.0101 167.14 86.2601C167.14 85.5101 166.865 84.8801 166.315 84.3701C165.775 83.8501 165 83.5901 163.99 83.5901C163.02 83.5901 162.205 83.8351 161.545 84.3251C160.895 84.8051 160.52 85.5101 160.42 86.4401H156.49C156.52 85.1101 156.865 84.0051 157.525 83.1251C158.185 82.2451 159.07 81.5901 160.18 81.1601C161.29 80.7201 162.54 80.5001 163.93 80.5001C165.24 80.5001 166.425 80.7501 167.485 81.2501C168.545 81.7401 169.385 82.4301 170.005 83.3201C170.635 84.2001 170.95 85.2301 170.95 86.4101C170.95 87.4101 170.765 88.2901 170.395 89.0501C170.035 89.8101 169.485 90.4751 168.745 91.0451C168.005 91.6151 167.07 92.1201 165.94 92.5601L161.92 94.1201C161.14 94.4201 160.575 94.7551 160.225 95.1251C159.875 95.4851 159.7 95.9601 159.7 96.5501V97.1201H170.83V100.36H156.16Z" fill="#1DE9B6"/>
<path d="M299.86 115.84C313.667 115.84 324.86 104.647 324.86 90.8401C324.86 77.033 313.667 65.8401 299.86 65.8401C286.053 65.8401 274.86 77.033 274.86 90.8401C274.86 104.647 286.053 115.84 299.86 115.84Z" fill="black" stroke="white" stroke-width="3" stroke-miterlimit="10"/>
<path d="M299.92 100.78C298.89 100.78 297.895 100.64 296.935 100.36C295.975 100.08 295.115 99.6651 294.355 99.1151C293.595 98.5651 292.99 97.8851 292.54 97.0751C292.1 96.2551 291.88 95.3101 291.88 94.2401H295.6C295.64 94.9201 295.845 95.5101 296.215 96.0101C296.585 96.5001 297.085 96.8801 297.715 97.1501C298.355 97.4101 299.09 97.5401 299.92 97.5401C301.14 97.5401 302.095 97.2601 302.785 96.7001C303.475 96.1401 303.82 95.4301 303.82 94.5701C303.82 94.0101 303.68 93.5301 303.4 93.1301C303.12 92.7201 302.69 92.4101 302.11 92.2001C301.53 91.9801 300.79 91.8701 299.89 91.8701H297.31V89.0801H299.5C300.64 89.0801 301.535 88.8351 302.185 88.3451C302.835 87.8551 303.16 87.1901 303.16 86.3501C303.16 85.6001 302.88 84.9751 302.32 84.4751C301.76 83.9651 300.92 83.7101 299.8 83.7101C298.89 83.7101 298.075 83.8951 297.355 84.2651C296.645 84.6351 296.19 85.2801 295.99 86.2001H292.27C292.41 84.8701 292.81 83.7851 293.47 82.9451C294.14 82.1051 295.005 81.4901 296.065 81.1001C297.125 80.7001 298.32 80.5001 299.65 80.5001C301.06 80.5001 302.315 80.7301 303.415 81.1901C304.515 81.6501 305.38 82.2901 306.01 83.1101C306.65 83.9201 306.97 84.8601 306.97 85.9301C306.97 86.9201 306.7 87.7851 306.16 88.5251C305.62 89.2551 304.82 89.8001 303.76 90.1601C304.94 90.5601 305.885 91.1551 306.595 91.9451C307.305 92.7351 307.66 93.7201 307.66 94.9001C307.66 96.0501 307.335 97.0701 306.685 97.9601C306.045 98.8401 305.145 99.5301 303.985 100.03C302.825 100.53 301.47 100.78 299.92 100.78Z" fill="white"/>
<path d="M40.5 2H13.5C11.0837 2.00791 8.76855 2.9713 7.05993 4.67992C5.35131 6.38854 4.38791 8.70366 4.38 11.12V33.71C4.38791 36.1263 5.35131 38.4415 7.05993 40.1501C8.76855 41.8587 11.0837 42.8221 13.5 42.83H18.74L26.97 51.06L35.2 42.83H40.5C42.9163 42.8221 45.2315 41.8587 46.9401 40.1501C48.6487 38.4415 49.6121 36.1263 49.62 33.71V11.12C49.6121 8.70366 48.6487 6.38854 46.9401 4.67992C45.2315 2.9713 42.9163 2.00791 40.5 2Z" fill="#010101" stroke="#1DE9B6" stroke-width="3" stroke-linecap="round" stroke-linejoin="round"/>
<path d="M38.25 16.22L24.19 30.29L15.75 21.84" stroke="#1DE9B6" stroke-width="2.61" stroke-linecap="round" stroke-linejoin="round"/>
<path d="M176.9 2H149.96C147.544 2.00791 145.229 2.9713 143.52 4.67992C141.811 6.38854 140.848 8.70366 140.84 11.12V33.71C140.848 36.1263 141.811 38.4415 143.52 40.1501C145.229 41.8587 147.544 42.8221 149.96 42.83H155.2L163.43 51.06L171.66 42.83H176.9C179.316 42.8221 181.631 41.8587 183.34 40.1501C185.049 38.4415 186.012 36.1263 186.02 33.71V11.12C186.015 8.70285 185.052 6.38621 183.343 4.67702C181.634 2.96783 179.317 2.00528 176.9 2Z" fill="#010101" stroke="#1DE9B6" stroke-width="3" stroke-linecap="round" stroke-linejoin="round"/>
<path d="M174.69 16.22L160.62 30.29L152.18 21.84" stroke="#1DE9B6" stroke-width="2.61" stroke-linecap="round" stroke-linejoin="round"/>
<path d="M313.33 2.00005H286.39C283.974 2.00796 281.659 2.97135 279.95 4.67997C278.241 6.38859 277.278 8.70371 277.27 11.12V33.71C277.278 36.1264 278.241 38.4415 279.95 40.1501C281.659 41.8587 283.974 42.8221 286.39 42.8301H291.64L299.86 51.0601L308.09 42.8301H313.33C315.755 42.8354 318.083 41.8778 319.802 40.1678C321.522 38.4577 322.492 36.135 322.5 33.71V11.12C322.497 9.91892 322.258 8.73009 321.796 7.62153C321.333 6.51296 320.657 5.5064 319.805 4.6594C318.954 3.8124 317.943 3.14156 316.832 2.68525C315.721 2.22894 314.531 1.9961 313.33 2.00005Z" fill="#010101" stroke="white" stroke-width="3" stroke-linecap="round" stroke-linejoin="round"/>
<path d="M64.11 90.4199H117.86" stroke="#1DE9B6" stroke-width="3" stroke-linecap="round" stroke-linejoin="round"/>
<path d="M118.68 98.11L126.68 90.77C126.729 90.725 126.769 90.6702 126.796 90.609C126.823 90.5479 126.837 90.4818 126.837 90.415C126.837 90.3481 126.823 90.282 126.796 90.2209C126.769 90.1598 126.729 90.105 126.68 90.06L118.68 82.73C118.611 82.6667 118.524 82.6246 118.432 82.6089C118.339 82.5932 118.244 82.6045 118.157 82.6414C118.071 82.6783 117.997 82.7392 117.944 82.817C117.892 82.8948 117.862 82.986 117.86 83.08V97.75C117.86 97.8448 117.888 97.9374 117.94 98.0166C117.992 98.0959 118.066 98.1583 118.153 98.1964C118.24 98.2345 118.336 98.2466 118.429 98.2313C118.523 98.216 118.61 98.1738 118.68 98.11Z" fill="#1DE9B6"/>
<path d="M201.11 90.4199H254.86" stroke="white" stroke-width="3.15" stroke-linecap="round" stroke-linejoin="round" stroke-dasharray="9 12"/>
<path d="M255.68 98.11L263.68 90.77C263.729 90.725 263.769 90.6702 263.796 90.609C263.823 90.5479 263.837 90.4818 263.837 90.415C263.837 90.3481 263.823 90.282 263.796 90.2209C263.769 90.1598 263.729 90.105 263.68 90.06L255.68 82.73C255.611 82.6667 255.524 82.6246 255.432 82.6089C255.339 82.5932 255.244 82.6045 255.157 82.6414C255.071 82.6783 254.997 82.7392 254.944 82.817C254.892 82.8948 254.862 82.986 254.86 83.08V97.75C254.86 97.8448 254.888 97.9374 254.94 98.0166C254.992 98.0959 255.066 98.1583 255.153 98.1964C255.24 98.2345 255.336 98.2466 255.429 98.2313C255.523 98.216 255.61 98.1738 255.68 98.11Z" fill="white"/>
<path d="M299.86 17.3501C301.02 17.3501 301.96 16.4099 301.96 15.2501C301.96 14.0903 301.02 13.1501 299.86 13.1501C298.7 13.1501 297.76 14.0903 297.76 15.2501C297.76 16.4099 298.7 17.3501 299.86 17.3501Z" fill="#1DE9B6"/>
<path d="M299.86 32.98C301.02 32.98 301.96 32.0398 301.96 30.88C301.96 29.7202 301.02 28.78 299.86 28.78C298.7 28.78 297.76 29.7202 297.76 30.88C297.76 32.0398 298.7 32.98 299.86 32.98Z" fill="#1DE9B6"/>
<path d="M307.68 25.17C308.84 25.17 309.78 24.2298 309.78 23.07C309.78 21.9102 308.84 20.97 307.68 20.97C306.52 20.97 305.58 21.9102 305.58 23.07C305.58 24.2298 306.52 25.17 307.68 25.17Z" fill="#1DE9B6"/>
<path d="M292.05 25.17C293.21 25.17 294.15 24.2298 294.15 23.07C294.15 21.9102 293.21 20.97 292.05 20.97C290.89 20.97 289.95 21.9102 289.95 23.07C289.95 24.2298 290.89 25.17 292.05 25.17Z" fill="#1DE9B6"/>
<path d="M305.39 19.6399C306.55 19.6399 307.49 18.6997 307.49 17.5399C307.49 16.3801 306.55 15.4399 305.39 15.4399C304.23 15.4399 303.29 16.3801 303.29 17.5399C303.29 18.6997 304.23 19.6399 305.39 19.6399Z" fill="#1DE9B6"/>
<path d="M294.34 30.69C295.5 30.69 296.44 29.7498 296.44 28.59C296.44 27.4302 295.5 26.49 294.34 26.49C293.18 26.49 292.24 27.4302 292.24 28.59C292.24 29.7498 293.18 30.69 294.34 30.69Z" fill="#1DE9B6"/>
<path d="M305.39 30.69C306.55 30.69 307.49 29.7498 307.49 28.59C307.49 27.4302 306.55 26.49 305.39 26.49C304.23 26.49 303.29 27.4302 303.29 28.59C303.29 29.7498 304.23 30.69 305.39 30.69Z" fill="#1DE9B6"/>
<path d="M294.34 19.6399C295.5 19.6399 296.44 18.6997 296.44 17.5399C296.44 16.3801 295.5 15.4399 294.34 15.4399C293.18 15.4399 292.24 16.3801 292.24 17.5399C292.24 18.6997 293.18 19.6399 294.34 19.6399Z" fill="#1DE9B6"/>
</svg>
