<svg width="217" height="235" viewBox="0 0 217 235" fill="none" xmlns="http://www.w3.org/2000/svg">
<path d="M28.317 68.5696C28.317 66.8174 28.3729 65.1397 28.4848 63.5366" stroke="white" stroke-width="3.15" stroke-linecap="round" stroke-linejoin="round"/>
<path d="M31.0347 50.8424C40.1276 26.5722 70.9407 30.7105 107.547 30.7105C147.028 30.7105 179.765 25.9459 185.782 57.1392" stroke="white" stroke-width="3.15" stroke-linecap="round" stroke-linejoin="round" stroke-dasharray="8.71 11.61"/>
<path d="M186.61 63.5366C186.722 65.1397 186.778 66.8174 186.778 68.5696" stroke="white" stroke-width="3.15" stroke-linecap="round" stroke-linejoin="round"/>
<path d="M54.6675 182.371C56.5235 178.999 59.189 176.142 62.4239 174.057C65.6589 171.971 69.3616 170.723 73.1989 170.425C77.0361 170.127 80.8873 170.787 84.4057 172.347C87.9242 173.907 90.9993 176.318 93.3544 179.362H130.643C133.144 179.362 135.542 180.356 137.31 182.124C139.078 183.892 140.072 186.29 140.072 188.791V191.923C140.072 194.423 139.078 196.821 137.31 198.589C135.542 200.358 133.144 201.351 130.643 201.351H121.148L124.123 201.81L134.815 203.454L173.726 172.585C174.923 171.579 176.31 170.823 177.804 170.362C179.298 169.901 180.87 169.745 182.426 169.902C183.982 170.059 185.491 170.526 186.863 171.276C188.235 172.026 189.443 173.044 190.415 174.269C191.387 175.494 192.104 176.901 192.523 178.408C192.942 179.914 193.054 181.49 192.854 183.041C192.654 184.592 192.144 186.087 191.356 187.438C190.568 188.788 189.517 189.967 188.265 190.905L141.593 227.847C140.488 228.73 139.229 229.401 137.88 229.827C133.447 232.507 128.211 233.537 123.094 232.734L54.6339 222.21" fill="black"/>
<path d="M54.6675 182.371C56.5235 178.999 59.189 176.142 62.4239 174.057C65.6589 171.971 69.3616 170.723 73.1989 170.425C77.0361 170.127 80.8873 170.787 84.4057 172.347C87.9242 173.907 90.9993 176.318 93.3544 179.362H130.643C133.144 179.362 135.542 180.356 137.31 182.124C139.078 183.892 140.072 186.29 140.072 188.791V191.923C140.072 194.423 139.078 196.821 137.31 198.589C135.542 200.358 133.144 201.351 130.643 201.351H121.148L124.123 201.81L134.815 203.454L173.726 172.585C174.923 171.579 176.31 170.823 177.804 170.362C179.298 169.901 180.87 169.745 182.426 169.902C183.982 170.059 185.491 170.526 186.863 171.276C188.235 172.026 189.443 173.044 190.415 174.269C191.387 175.494 192.104 176.901 192.523 178.408C192.942 179.914 193.054 181.49 192.854 183.041C192.654 184.592 192.144 186.087 191.356 187.438C190.568 188.788 189.517 189.967 188.265 190.905L141.593 227.847C140.488 228.73 139.229 229.401 137.88 229.827C133.447 232.507 128.211 233.537 123.094 232.734L54.6339 222.21" stroke="white" stroke-width="3" stroke-miterlimit="10"/>
<path d="M121.147 201.295H94.495" stroke="white" stroke-width="3" stroke-miterlimit="10"/>
<path d="M29.3907 167.406H46.5252C48.6698 167.406 50.7266 168.258 52.2431 169.775C53.7596 171.291 54.6115 173.348 54.6115 175.493V222.915C54.6085 225.057 53.7553 227.111 52.2391 228.625C50.723 230.139 48.6679 230.99 46.5252 230.99H29.3907C28.1033 230.99 26.8686 230.478 25.9583 229.568C25.048 228.658 24.5366 227.423 24.5366 226.136V172.249C24.5396 170.964 25.0523 169.732 25.9623 168.824C26.8723 167.916 28.1052 167.406 29.3907 167.406Z" fill="black" stroke="white" stroke-width="3" stroke-miterlimit="10"/>
<path d="M115.321 2.00002H97.2018C96.3439 1.99926 95.4943 2.16781 94.7016 2.496C93.909 2.82419 93.1889 3.30557 92.5826 3.91255L79.7653 16.7299C78.5401 17.9512 77.8484 19.608 77.8416 21.3379V39.4678C77.8449 41.1995 78.5323 42.8597 79.7541 44.087L92.5826 56.9043C93.8073 58.1312 95.4682 58.8229 97.2018 58.828H115.321C117.051 58.8313 118.713 58.1474 119.94 56.9267L132.757 44.087C133.979 42.8597 134.666 41.1995 134.67 39.4678V21.3379C134.666 19.6096 133.978 17.953 132.757 16.7299L119.94 3.91255C119.334 3.30457 118.614 2.82254 117.821 2.49428C117.029 2.16602 116.179 1.99804 115.321 2.00002Z" fill="#010101" stroke="#1DE9B6" stroke-width="2.38" stroke-linecap="round" stroke-linejoin="round"/>
<path d="M105.937 30.7328L96.9445 58.8057H105.937H114.929L105.937 30.7328Z" fill="#010101" stroke="#1DE9B6" stroke-width="2.38" stroke-linecap="round" stroke-linejoin="round"/>
<path d="M105.937 30.0729L96.9445 2H105.937H114.929L105.937 30.0729Z" fill="#010101" stroke="#1DE9B6" stroke-width="2.38" stroke-linecap="round" stroke-linejoin="round"/>
<path d="M105.937 30.4084L77.8527 21.4161V30.4084V39.4007L105.937 30.4084Z" fill="#010101" stroke="#1DE9B6" stroke-width="2.38" stroke-linecap="round" stroke-linejoin="round"/>
<path d="M106.597 30.4084L134.67 21.4161V30.4084V39.4007L106.597 30.4084Z" fill="#010101" stroke="#1DE9B6" stroke-width="2.38" stroke-linecap="round" stroke-linejoin="round"/>
<path d="M121.684 22.7584L113.855 14.9852C113.301 14.4267 112.551 14.1059 111.764 14.0905H100.77C100.371 14.0894 99.9764 14.1668 99.6079 14.3185C99.2394 14.4701 98.9045 14.6928 98.6222 14.974L90.7931 22.8031C90.2221 23.3721 89.9003 24.1445 89.8983 24.9505V35.9001C89.9003 36.7061 90.2221 37.4785 90.7931 38.0475L98.6222 45.8206C99.1912 46.3916 99.9635 46.7134 100.77 46.7154H111.764C112.57 46.7134 113.342 46.3916 113.911 45.8206L121.74 38.0475C122.292 37.4701 122.593 36.6984 122.579 35.9001V24.9058C122.579 24.5066 122.5 24.1113 122.346 23.7428C122.192 23.3743 121.968 23.0398 121.684 22.7584Z" fill="#010101" stroke="#1DE9B6" stroke-width="2.38" stroke-linecap="round" stroke-linejoin="round"/>
<path d="M214.414 130.52L190.301 88.7574C189.784 87.8465 189.034 87.0897 188.128 86.5648C187.222 86.04 186.192 85.766 185.145 85.7712V117.088L186.196 120.174L177.249 124.95H194.025L214.448 136.28C214.937 135.398 215.19 134.404 215.184 133.396C215.178 132.387 214.913 131.397 214.414 130.52Z" fill="#010101" stroke="#1DE9B6" stroke-width="2.38" stroke-linecap="round" stroke-linejoin="round"/>
<path d="M185.145 117.088V85.7712C184.098 85.766 183.068 86.04 182.162 86.5648C181.256 87.0897 180.505 87.8465 179.989 88.7574L155.875 130.52C155.325 131.459 155.047 132.532 155.071 133.62C155.094 134.708 155.419 135.768 156.009 136.683L176.991 124.95H177.282L186.23 120.174L185.145 117.088Z" fill="#010101" stroke="#1DE9B6" stroke-width="2.38" stroke-linecap="round" stroke-linejoin="round"/>
<path d="M161.031 139.456H209.258C210.342 139.461 211.406 139.167 212.333 138.607C213.26 138.047 214.015 137.242 214.515 136.28L194.092 124.95H176.991L156.009 136.683C156.538 137.537 157.278 138.24 158.158 138.726C159.037 139.212 160.026 139.463 161.031 139.456Z" fill="#010101" stroke="#1DE9B6" stroke-width="2.38" stroke-linecap="round" stroke-linejoin="round"/>
<path d="M182.74 103.387L169.923 125.588C169.676 126.01 169.546 126.49 169.545 126.978C169.543 127.467 169.671 127.948 169.915 128.371C170.159 128.794 170.511 129.146 170.935 129.39C171.358 129.634 171.839 129.761 172.327 129.76H197.962C198.45 129.758 198.928 129.628 199.35 129.383C199.771 129.139 200.121 128.788 200.365 128.365C200.608 127.943 200.736 127.464 200.737 126.977C200.737 126.489 200.61 126.01 200.367 125.588L187.549 103.387C187.306 102.964 186.956 102.613 186.534 102.368C186.112 102.124 185.633 101.995 185.145 101.995C184.657 101.995 184.178 102.124 183.756 102.368C183.334 102.613 182.983 102.964 182.74 103.387Z" fill="#010101" stroke="#1DE9B6" stroke-width="2.38" stroke-linecap="round" stroke-linejoin="round"/>
<path d="M52.7661 129.681V95.457C52.7661 95.2557 52.7661 95.0543 52.7661 94.853L27.892 112.256L52.7661 129.681Z" fill="#010101" stroke="#1DE9B6" stroke-width="2.38" stroke-linecap="round" stroke-linejoin="round"/>
<path d="M2.22369 93.4998C2.07508 94.1416 2.00004 94.7982 2 95.457V129.771C2.00295 130.217 2.04034 130.662 2.11184 131.102L26.9189 112.256L2.22369 93.4998Z" fill="#010101" stroke="#1DE9B6" stroke-width="2.38" stroke-linecap="round" stroke-linejoin="round"/>
<path d="M43.9974 86.6884H10.735C8.75629 86.6985 6.83905 87.3767 5.29414 88.613C3.74923 89.8494 2.66724 91.5713 2.22363 93.4997L26.9188 112.256L27.3774 111.909L27.8919 112.256L52.7324 94.853C52.5822 92.6385 51.5967 90.5636 49.9751 89.048C48.3536 87.5323 46.217 86.6889 43.9974 86.6884Z" fill="#010101" stroke="#1DE9B6" stroke-width="2.38" stroke-linecap="round" stroke-linejoin="round"/>
<path d="M27.3774 112.614L26.9188 112.256L2.11182 131.102C2.42863 133.165 3.47109 135.047 5.05176 136.411C6.63243 137.774 8.64762 138.529 10.735 138.539H43.9974C46.323 138.539 48.5533 137.615 50.1978 135.971C51.8422 134.327 52.766 132.096 52.766 129.771V129.681L27.8919 112.256L27.3774 112.614Z" fill="#010101" stroke="#1DE9B6" stroke-width="2.38" stroke-linecap="round" stroke-linejoin="round"/>
<path d="M27.892 112.256L27.3887 111.909L26.9189 112.256L27.3887 112.614L27.892 112.256Z" fill="#010101" stroke="#1DE9B6" stroke-width="2.38" stroke-linecap="round" stroke-linejoin="round"/>
<path d="M34.7368 95.8596H20.0182C15.021 95.8596 10.97 99.9106 10.97 104.908V120.331C10.97 125.328 15.021 129.379 20.0182 129.379H34.7368C39.734 129.379 43.785 125.328 43.785 120.331V104.908C43.785 99.9106 39.734 95.8596 34.7368 95.8596Z" fill="#010101" stroke="#1DE9B6" stroke-width="2.38" stroke-linecap="round" stroke-linejoin="round"/>
</svg>
